<svg id="logo-gradient" data-name="Logo Gradient" xmlns="http://www.w3.org/2000/svg" xmlns:xlink="http://www.w3.org/1999/xlink" width="429" height="90" viewBox="0 0 429 90">
  <defs>
    <style>
      .cls-1 {
        fill: #000000;
      }

      .cls-2 {
        fill: url(#linear-gradient);
      }
    </style>
    <linearGradient id="linear-gradient" x1="1" y1="46" x2="92" y2="46" gradientUnits="userSpaceOnUse">
      <stop offset="0" stop-color="#56aa46"/>
      <stop offset="1" stop-color="#ffc44a"/>
    </linearGradient>
  </defs>
  <path id="Nutricare" class="cls-1" d="M407.1,55.65l-0.068.2a11.512,11.512,0,0,0,1.193,4.718,8.115,8.115,0,0,0,2.965,3.253,8.573,8.573,0,0,0,4.634,1.192,16.931,16.931,0,0,0,9.883-2.964l2.658,5.757a18.828,18.828,0,0,1-5.623,3.083,23.024,23.024,0,0,1-7.906,1.243,17.486,17.486,0,0,1-9.15-2.334,15.965,15.965,0,0,1-6.049-6.438,19.953,19.953,0,0,1-2.147-9.385v-1.4a21.807,21.807,0,0,1,2.062-9.657,16.087,16.087,0,0,1,5.776-6.643,15.464,15.464,0,0,1,8.588-2.4,16.431,16.431,0,0,1,8.417,1.993,12.641,12.641,0,0,1,5.146,5.706,20.913,20.913,0,0,1,1.738,8.925V55.65H407.1Zm13.393-7.188a10.913,10.913,0,0,0-.682-4.037,5.632,5.632,0,0,0-2.095-2.674,6.434,6.434,0,0,0-3.664-.954,5.658,5.658,0,0,0-3.51,1.107,7.556,7.556,0,0,0-2.317,3,14.32,14.32,0,0,0-1.125,4.275l0.1,0.17h13.29V48.462Zm-31.556-5.757a6.017,6.017,0,0,0-3.63.818,7.893,7.893,0,0,0-2.436,2.623V64.813l4.941,1.022v5.587H368.655V65.835l4.942-1.022V41.206l-5.317-1.022V34.563h13.9l0.409,4.6,0.068,0.784a11.709,11.709,0,0,1,3.476-4.514,7.984,7.984,0,0,1,4.908-1.55,14.151,14.151,0,0,1,1.993.153,11.474,11.474,0,0,1,1.823.392l-1.056,8.55Zm-37.2,26.554a13.781,13.781,0,0,1-.461-2.231,14.607,14.607,0,0,1-4.31,3.7,11.555,11.555,0,0,1-5.777,1.414q-5.554,0-8.741-2.913a10.283,10.283,0,0,1-3.186-7.988,10.234,10.234,0,0,1,1.891-6.115A12.25,12.25,0,0,1,336.741,51a24.276,24.276,0,0,1,9.014-1.482H351v-2.9a6.183,6.183,0,0,0-1.653-4.5,6.467,6.467,0,0,0-4.856-1.7,10.568,10.568,0,0,0-3.118.426,8.5,8.5,0,0,0-2.471,1.209L338.121,47h-6.747l-0.068-9.334a27.239,27.239,0,0,1,6.151-2.742,25.237,25.237,0,0,1,7.48-1.039q7.122,0,11.229,3.321t4.106,9.521v15.7q0,0.75.017,1.465a11.161,11.161,0,0,0,.119,1.4l3.783,0.545v5.587H352.434Q352.059,70.367,351.736,69.259ZM351,55.309h-5.282a7.806,7.806,0,0,0-5.4,1.652,5.1,5.1,0,0,0-1.823,3.9,3.971,3.971,0,0,0,1.3,3.168,5.444,5.444,0,0,0,3.681,1.124,9.3,9.3,0,0,0,4.413-1.09A8.01,8.01,0,0,0,351,61.3v-6ZM317.112,70.57a17.522,17.522,0,0,1-7.889,1.567,16.935,16.935,0,0,1-9.082-2.368,15.75,15.75,0,0,1-5.912-6.558,21.416,21.416,0,0,1-2.079-9.64V52.448a21.118,21.118,0,0,1,2.1-9.572,16.146,16.146,0,0,1,5.912-6.592,16.538,16.538,0,0,1,9-2.4,21.224,21.224,0,0,1,8.434,1.533,19.018,19.018,0,0,1,5.777,3.679v10.22h-7.021l-1.294-6.575a6.613,6.613,0,0,0-2.25-1.431,7.735,7.735,0,0,0-2.9-.545,7.43,7.43,0,0,0-4.652,1.448,8.834,8.834,0,0,0-2.862,4.054,17.7,17.7,0,0,0-.972,6.183v1.124a17.2,17.2,0,0,0,1.023,6.387,8.248,8.248,0,0,0,2.811,3.8,7.339,7.339,0,0,0,8.537-.221,7.309,7.309,0,0,0,2.317-4.173h7.94l0.1,0.2a16.638,16.638,0,0,1-2.2,6.592A11.6,11.6,0,0,1,317.112,70.57Zm-47.828-4.735,4.941-1.022V41.206l-5.35-1.022V34.563h14.619v30.25l4.942,1.022v5.587H269.284V65.835Zm4.6-47.555h9.61v8.21h-9.61V18.28Zm-13.8,24.425a6.017,6.017,0,0,0-3.63.818,7.893,7.893,0,0,0-2.436,2.623V64.813l4.941,1.022v5.587H239.806V65.835l4.941-1.022V41.206l-5.316-1.022V34.563h13.9l0.409,4.6,0.068,0.784a11.709,11.709,0,0,1,3.476-4.514,7.981,7.981,0,0,1,4.907-1.55,14.164,14.164,0,0,1,1.994.153,11.474,11.474,0,0,1,1.823.392l-1.056,8.55ZM228.39,72.1q-4.908,0-7.616-2.742t-2.71-8.7V41.138H212.85V34.563h5.214V25.57H227.3v8.993h7.055v6.575H227.3V60.657a4.55,4.55,0,0,0,.955,3.236,3.384,3.384,0,0,0,2.556.988,15.24,15.24,0,0,0,1.942-.136q1.056-.136,1.772-0.273l0.886,6.575a29.651,29.651,0,0,1-3.391.749A22.263,22.263,0,0,1,228.39,72.1Zm-31.216-5.519a11.946,11.946,0,0,1-4.379,4.122,12.42,12.42,0,0,1-6.014,1.431q-5.9,0-9.218-3.73t-3.323-11.6v-15.6l-4.089-1.022V34.563h13.358V56.876q0,4.361,1.448,6.183a5.336,5.336,0,0,0,4.448,1.823,9.017,9.017,0,0,0,4.328-.988,7.694,7.694,0,0,0,2.964-2.827V41.206l-4.5-1.022V34.563h13.768v30.25l4.4,1.022v5.587H197.788Zm-35.407,4.837h-8.894L130.211,36.369l-0.2.034V64.813l6.3,1.022v5.587h-19.97V65.835l5.316-1.022V28.466l-5.316-1.022V21.823h14.722l22.185,35.292,0.2-.034V28.466l-6.3-1.022V21.823h19.97v5.621l-5.351,1.022V71.422Z" transform="translate(-1 -0.438)"/>
  <path class="cls-2" d="M89.88,35.454A43.055,43.055,0,0,0,76.444,12.285,44.247,44.247,0,0,0,47.082.431,43.511,43.511,0,0,0,34.5,1.9,44.927,44.927,0,0,0,15.534,12.3c-0.353.322-.321,0.47,0.039,0.735q1.884,1.387,3.73,2.828a0.457,0.457,0,0,0,.709-0.045A36.756,36.756,0,0,1,28.617,10.1,39.191,39.191,0,0,1,40.748,6.564,37.516,37.516,0,0,1,57.32,8.271,37.927,37.927,0,0,1,39.417,81.7a38.324,38.324,0,0,1-17.734-7.726,55.989,55.989,0,0,1-8.6-8.959A26.785,26.785,0,0,1,6.791,49.691a7.945,7.945,0,0,0-.429-2.655,41.144,41.144,0,0,1-3.491-14.27,0.651,0.651,0,0,0-.09.116c-0.036.1-.069,0.2-0.1,0.3A44.53,44.53,0,0,0,2.1,55.322,43.593,43.593,0,0,0,17.086,79.865C28.122,88.986,40.808,92.2,54.852,89.521a42.8,42.8,0,0,0,25.6-15.178C89.859,62.948,92.968,49.887,89.88,35.454ZM14.293,57.371a0.538,0.538,0,0,0,.293.274c0.064-.129.123-0.238,0.173-0.35a47.638,47.638,0,0,0,4.12-15.419A45.971,45.971,0,0,0,17.9,27.09a14.888,14.888,0,0,1-.537-2.193,13.391,13.391,0,0,1,2.105,2.713,29.02,29.02,0,0,1,4.154,12.763,52.331,52.331,0,0,1-.7,15.241c-0.117.626-.239,1.25-0.359,1.875l0.126,0.07a1.022,1.022,0,0,1,.1-0.187,49.839,49.839,0,0,0,4.952-6.84A29.024,29.024,0,0,0,32.19,37.486,16.619,16.619,0,0,0,25.628,22.57c-2.7-2.12-5.58-4.02-8.331-6.082-2.006-1.5-4.172-2.845-5.584-5.017-0.237-.364-0.319-0.053-0.409.114-0.658,1.215-1.318,2.428-1.963,3.649C8.4,17.018,7.283,18.722,6.525,20.59A29.123,29.123,0,0,0,5.179,37.559,49.164,49.164,0,0,0,14.293,57.371Zm18.482-9.726a14.782,14.782,0,0,0-2.356,4.079c0.121-.1.244-0.2,0.363-0.3a30.2,30.2,0,0,1,7.582-4.858,20.089,20.089,0,0,1,11.392-1.83A19.853,19.853,0,0,1,63.6,53.511a16.417,16.417,0,0,1,2.8,11.774,22.235,22.235,0,0,1-4.989,11,0.8,0.8,0,0,0,.608-0.226A38.137,38.137,0,0,0,75.572,63.183a2.015,2.015,0,0,0,.331-1.145,27.231,27.231,0,0,0-2.391-10.549,77.566,77.566,0,0,0-5.746-10.524c-1.624-2.619-3.359-5.172-4.756-7.927-2.193-4.322-3.678-8.829-3.478-13.75A14.786,14.786,0,0,1,61.8,11.639c0.043-.066.129-0.131,0.025-0.246A10.7,10.7,0,0,0,59.9,13.132a18.5,18.5,0,0,0-4.412,12.074,34.149,34.149,0,0,0,1.641,11.042c0.247,0.82.52,1.632,0.788,2.469-0.337,0-.62.008-0.9,0a39.192,39.192,0,0,0-13.129,1.62A22.168,22.168,0,0,0,32.775,47.644ZM28.1,68.655c0.121,0.073.243,0.145,0.369,0.208a21.968,21.968,0,0,0,13.9,2.053A25.064,25.064,0,0,0,53.38,65.905a37.573,37.573,0,0,0,5.685-5.42,0.978,0.978,0,0,0-.2-0.1A20.7,20.7,0,0,1,52.442,57.8c-1.7-.96-3.233-2.179-4.908-3.177a16.223,16.223,0,0,0-7.571-2.566,12.168,12.168,0,0,0-7.72,2.4A27.558,27.558,0,0,0,25.06,62.5l-0.014.023a0.108,0.108,0,0,0,.034.157h0a31.14,31.14,0,0,1,11.732-3.962l0.079-.01q0.406-.051.8-0.09l0.357-.033q0.585-.051,1.149-0.079,0.287-.014.568-0.023h0.038q0.3-.009.6-0.011h0.311q0.753,0,1.453.044,0.279,0.016.549,0.038T43.244,58.6q0.26,0.027.509,0.059t0.487,0.068c0.556,0.085,1.066.188,1.524,0.3-6.962,1.292-13.04,4.132-17.759,9.5A0.587,0.587,0,0,0,28.1,68.655Zm5.444-6.724c0.635-.289,1.288-0.538,1.932-0.8-6.151.53-10.244,4.274-13.861,8.9a4.253,4.253,0,0,1-.177-0.4c-0.155-.507-0.323-1.012-0.451-1.526a26.8,26.8,0,0,1-.166-9.721c0.349-3.008.911-5.987,1.156-9.009a43.854,43.854,0,0,0-.691-12.481,5,5,0,0,0-.476-1.593,59.321,59.321,0,0,1-.856,11.082c-0.516,3.078-1.409,6.065-2.113,9.1a35.143,35.143,0,0,0-1.231,10.723,1.217,1.217,0,0,0,.275.721,36.645,36.645,0,0,0,8.782,7.815,0.474,0.474,0,0,0,.4.168,0.165,0.165,0,0,0,.021-0.063c-0.046-.17-0.1-0.339-0.143-0.51a8.6,8.6,0,0,1,2.238-8.809A18.019,18.019,0,0,1,33.543,61.931ZM53.339,30.9a5.816,5.816,0,0,0-5.689-5.886,5.725,5.725,0,0,0-5.695,5.736A5.694,5.694,0,1,0,53.339,30.9Z" transform="translate(-1 -0.438)"/>
</svg>
